/* XPM */
static char *_80a8927517c42ce908ed086c35376abBULzb9F7vBG2Gvu2[] = {
/* columns rows colors chars-per-pixel */
"100 100 9 1 ",
"  c None",
". c #3D4258",
"X c #45DABE",
"o c gray60",
"O c gray63",
"+ c #A7A7A7",
"@ c #E6E6E6",
"# c #F4F4F4",
"$ c white",
/* pixels */
"                                                                                                    ",
"                                                                                                    ",
"                                                                                                    ",
"                                                                                                    ",
"                                                                                                    ",
"                                                                                                    ",
"                                                                                                    ",
"                                                                                                    ",
"                                                                                                    ",
"                                                                                                    ",
"                                                                                                    ",
"                                                                                                    ",
"                                                                                                    ",
"                                                                                                    ",
"                  +++                                                                               ",
"                  +++                                                                               ",
"                  +++                                                                               ",
"                  +++                                                                               ",
"              ++++$$$++++                                       ++++                                ",
"              ++++$$$++++                                       ++++                                ",
"              ++++$$$++++                                       ++++                                ",
"              ++++$$$++++                                       ++++                                ",
"              ++++$$$++++                                    +++####+++                             ",
"              ++++$$$++++                                    +++####+++                             ",
"              ++++$$$++++                                    +++####+++                             ",
"              OOOO$$$++++                                ++++###$$$$$$$++++                         ",
"              OOOO$$$++++                                ++++###$$$$$$$++++                         ",
"              OOOO$$$++++                                ++++###$$$$$$$++++                         ",
"              OOOO$$$++++                                ++++###$$$$$$$++++                         ",
"              OOOO$$$++++                                ++++$$$$$$$$$$+++++++++++                  ",
"              OOOO$$$++++                                ++++$$$$$$$$$$+++++++++++                  ",
"              OOOO$$$++++                                ++++$$$$$$$$$$+++++++++++                  ",
"              OOOO$$$++++                             +++$$$$$$$$$$$$$$$$$$$$$$$$$++++              ",
"              OOOO$$$++++                             +++$$$$$$$$$$$$$$$$$$$$$$$$$++++              ",
"              OOOO$$$++++                             +++$$$$$$$$$$$$$$$$$$$$$$$$$++++              ",
"              OOOO$$$++++                             +++$$$$$$$$$$$$$$$$$$$$$$$$$++++              ",
"              OOOO$$$++++                             OOO$$$$$$$$$$$$$$$$$$XXXX$$$++++              ",
"              OOOO$$$++++                             OOO$$$$$$$$$$$$$$$$$$XXXX$$$++++              ",
"              OOOO$$$++++                             OOO$$$$$$$$$$$$$$$$$$XXXX$$$++++              ",
"              oooo###$$$$++++                         OOO$$$$$$$$$$$$$$$$$$XXXX$$$$$$$...           ",
"              oooo###$$$$++++                         OOO$$$$$$$$$$$$$$$$$$XXXX$$$$$$$...           ",
"              oooo###$$$$++++                         OOO$$$$$$$$$$$$$$$$$$XXXX$$$$$$$...           ",
"              oooo###$$$$++++                         OOO$$$$$$$$$$$$$$$$$$XXXX$$$$$$$...           ",
"                  OOO$$$$$$$$+++++++++++++++++OOOOoooo###$$$$$$$$$$$$$$$$$$$$$$$$$####OOO           ",
"                  OOO$$$$$$$$+++++++++++++++++OOOOoooo###$$$$$$$$$$$$$$$$$$$$$$$$$####OOO           ",
"                  OOO$$$$$$$$+++++++++++++++++OOOOoooo###$$$$$$$$$$$$$$$$$$$$$$$$$####OOO           ",
"                  OOO$$$$$$$$+++++++++++++++++OOOOoooo###$$$$$$$$$$$$$$$$$$$$$$$$$####OOO           ",
"                  ooo####$$$$$$$$$$$$$$$$$$$$$$$$$$$$$$$$####$$$$$$$$$$$$$$$$$$###OOOO              ",
"                  ooo####$$$$$$$$$$$$$$$$$$$$$$$$$$$$$$$$####$$$$$$$$$$$$$$$$$$###OOOO              ",
"                  ooo####$$$$$$$$$$$$$$$$$$$$$$$$$$$$$$$$####$$$$$$$$$$$$$$$$$$###OOOO              ",
"                     OOOO$$$$$$$$$$$$$$$$$$$$$$$$$$$$$$$$$$$$#######@@@ooooooooooo                  ",
"                     OOOO$$$$$$$$$$$$$$$$$$$$$$$$$$$$$$$$$$$$#######@@@ooooooooooo                  ",
"                     OOOO$$$$$$$$$$$$$$$$$$$$$$$$$$$$$$$$$$$$#######@@@ooooooooooo                  ",
"                     OOOO$$$$$$$$$$$$$$$$$$$$$$$$$$$$$$$$$$$$#######@@@ooooooooooo                  ",
"                     OOOO$$$$$$$$$$$$$$$$$$$$$$$$$$$$$$$$$$$$$$$####ooo                             ",
"                     OOOO$$$$$$$$$$$$$$$$$$$$$$$$$$$$$$$$$$$$$$$####ooo                             ",
"                     OOOO$$$$$$$$$$$$$$$$$$$$$$$$$$$$$$$$$$$$$$$####ooo                             ",
"                     oooo####$$$$$$$$$$$$$$$$$$$$$$$$$$$$$$$$$$$####ooo                             ",
"                     oooo####$$$$$$$$$$$$$$$$$$$$$$$$$$$$$$$$$$$####ooo                             ",
"                     oooo####$$$$$$$$$$$$$$$$$$$$$$$$$$$$$$$$$$$####ooo                             ",
"                     oooo####$$$$$$$$$$$$$$$$$$$$$$$$$$$$$$$$$$$####ooo                             ",
"                         oooo$$$$$$$$$$$$$$$$$$$$$$$$$$$$$$$$###oooo                                ",
"                         oooo$$$$$$$$$$$$$$$$$$$$$$$$$$$$$$$$###oooo                                ",
"                         oooo$$$$$$$$$$$$$$$$$$$$$$$$$$$$$$$$###oooo                                ",
"                         oooo$$$$$$$$$$$$$$$$$$$$$$$$$$$$$$$$###oooo                                ",
"                         OOOO###OOOOOOOOOOOOOOOOOOOOOOOOO####OOO                                    ",
"                         OOOO###OOOOOOOOOOOOOOOOOOOOOOOOO####OOO                                    ",
"                         OOOO###OOOOOOOOOOOOOOOOOOOOOOOOO####OOO                                    ",
"                     ooooOOOO#######OOO       oooo@@@@OOO#######OOOO                                ",
"                     ooooOOOO#######OOO       oooo@@@@OOO#######OOOO                                ",
"                     ooooOOOO#######OOO       oooo@@@@OOO#######OOOO                                ",
"                     ooooOOOO#######OOO       oooo@@@@OOO#######OOOO                                ",
"                     ooooooooOOO####OOO           oooooooOOOO#######OOO                             ",
"                     ooooooooOOO####OOO           oooooooOOOO#######OOO                             ",
"                     ooooooooOOO####OOO           oooooooOOOO#######OOO                             ",
"                             OOOOOOOOOO                      OOOOOOOOOO                             ",
"                             OOOOOOOOOO                      OOOOOOOOOO                             ",
"                             OOOOOOOOOO                      OOOOOOOOOO                             ",
"                             OOOOOOOOOO                      OOOOOOOOOO                             ",
"                                                                                                    ",
"                                                                                                    ",
"                                                                                                    ",
"                                                                                                    ",
"                                                                                                    ",
"                                                                                                    ",
"                                                                                                    ",
"                                                                                                    ",
"                                                                                                    ",
"                                                                                                    ",
"                                                                                                    ",
"                                                                                                    ",
"                                                                                                    ",
"                                                                                                    ",
"                                                                                                    ",
"                                                                                                    ",
"                                                                                                    ",
"                                                                                                    ",
"                                                                                                    ",
"                                                                                                    ",
"                                                                                                    ",
"                                                                                                    ",
"                                                                                                    ",
"                                                                                                    ",
"                                                                                                    "
};
