/* XPM */
static char *_b159bd18c41445bd5ae987d00f5fe04CX9nJHBf4H8xF5qk[] = {
/* columns rows colors chars-per-pixel */
"100 100 81 1 ",
"  c None",
". c black",
"X c #13355C",
"o c #3D2A45",
"O c #14326A",
"+ c #4B3D54",
"@ c #57385E",
"# c #573661",
"$ c #25425F",
"% c #124277",
"& c #124479",
"* c #685A5E",
"= c #5C4767",
"- c #684969",
"; c #674470",
": c #685673",
"> c #7A517C",
", c #797779",
"< c #797979",
"1 c #A92021",
"2 c #AC2223",
"3 c #AD2324",
"4 c #CC3333",
"5 c #B24D3B",
"6 c #B54F3D",
"7 c #B54E3F",
"8 c #C86E5B",
"9 c #E24D6A",
"0 c #EA5B69",
"q c #C87261",
"w c #E06D78",
"e c #CE8B6D",
"r c #CF9271",
"t c #4031A3",
"y c #1F5D9D",
"u c #21468E",
"i c #746180",
"p c #1671CB",
"a c #0078EF",
"s c #4278C7",
"d c #F17E80",
"f c #F47B87",
"g c #1A88D8",
"h c #0795FA",
"j c #0391FF",
"k c #2989E7",
"l c #06A0FF",
"z c #12A8FF",
"x c #14B5FF",
"c c #2DBCEE",
"v c #4F9CE6",
"b c #39E7FF",
"n c #898189",
"m c #888788",
"M c #928A92",
"N c gray57",
"B c #959595",
"V c #9D959C",
"C c #A09FA0",
"Z c #AFAFAF",
"A c gray72",
"S c #DC8C83",
"D c #DC9385",
"F c #DE9586",
"G c #F9808A",
"H c #EE8B90",
"J c #DCA593",
"K c #FA99A5",
"L c #99BCE5",
"P c #96B7E8",
"I c #BDD5EE",
"U c #BED8F0",
"Y c #BEDCF1",
"T c #D0D0D0",
"R c LightGray",
"E c #FFD2DA",
"W c #D1E8F7",
"Q c #D5FDFF",
"! c #FFE0E5",
"~ c #E2FDFF",
"^ c white",
/* pixels */
"                                                                                                    ",
"                                                                                                    ",
"                                                                                                    ",
"                                                                                                    ",
"                                                                                                    ",
"                                                                                                    ",
"                                                                                                    ",
"                                                                                                    ",
"                                                                                                    ",
"                                                                                                    ",
"                                                                                                    ",
"                                                                                                    ",
"                                                                                                    ",
"                                                                                                    ",
"                                                                                                    ",
"                                                                                                    ",
"                                                                                                    ",
"                                                                                                    ",
"                                                                                                    ",
"                            ............................................                            ",
"                            ............................................                            ",
"                            ............................................                            ",
"                   .........MMMZZZTTTTTTTTTTTTTTTTTTTTTTTTTZZZZZZZZZZMMM.........                   ",
"                   .........MMMZZZTTTTTTTTTTTTTTTTTTTTTTTTTZZZZZZZZZZMMM.........                   ",
"                   .........MMMZZZTTTTTTTTTTTTTTTTTTTTTTTTTZZZZZZZZZZMMM.........                   ",
"            .......MMMZZZZZZ***###oooooooooooooooooooooooooooooooo###***ZZZZZZMMM......             ",
"            .......MMMZZZZZZ***###oooooooooooooooooooooooooooooooo###***ZZZZZZMMM......             ",
"            .......MMMZZZZZZ***###oooooooooooooooooooooooooooooooo###***ZZZZZZMMM......             ",
"         ...ZZZZZZZ***ooo---<<<mmmBBBmmmm,,,,,,mmmBBBBBBBBBBBBmmmm,,,<<<@@@ooo***ZZZZZZ....         ",
"         ...ZZZZZZZ***ooo---<<<mmmBBBmmmm,,,,,,mmmBBBBBBBBBBBBmmmm,,,<<<@@@ooo***ZZZZZZ....         ",
"         ...ZZZZZZZ***ooo---<<<mmmBBBmmmm,,,,,,mmmBBBBBBBBBBBBmmmm,,,<<<@@@ooo***ZZZZZZ....         ",
"      ...***MMMM***ZZZZZZZZZMMMCCCZZZCCCCMMMMMMCCCZZZZZZZZZZZZCCCCMMMZZZZZZZZZMMM***MMMMMMM...      ",
"      ...***MMMM***ZZZZZZZZZMMMCCCZZZCCCCMMMMMMCCCZZZZZZZZZZZZZZCCMMMZZZZZZZZZMMM***MMMMMMM...      ",
"      ...***MMMM***ZZZZZZZZZMMMCCCZZZCZCCMMMMMMCCCZZZZZZZZZZZZZZCCMMMZZZZZZZZZMMM***MMMMMMM...      ",
"      ...***ZZZZZZZ***nnnAAAAAAAAATTTAAAAAAAAAAAAATTTTTRRTTTTTAAAAAAAAAAAAAnnn***ZZZZZZ****...      ",
"      ...***ZZZZZZZ***nnnAAAAAAAAATTTAAAAAAAAAAAAATTTTTRRTTTTTAAAAAAAAAAAAAnnn***ZZZZZZ****...      ",
"      ...***ZZZZZZZ***nnnAAAAAAAAATTTAAAAAAAAAAAAATTTTRRTTTTTTAAAAAAAAAAAAAnnn***ZZZZZZ****...      ",
"      ...***ZZZZZZZ***nnnAAAAAAAAATTTAAAAAAAAAAAAATTTTRRTTTTTTAAAAAAAAAAAAAnnn***ZZZZZZ****...      ",
"      ...999****MMMZZZZZZnnn;;;+++===::::iiiiiiiiiiiiiiiiii:::=======>>>nnnZZZZZZNNN***9999...      ",
"      ...999****MMMZZZZZZnnn;;;+++===::::iiiiiiiiiiiiiiiiii:::=======>>>nnnZZZZZZNNN***9999...      ",
"      ...999****MMMZZZZZZnnn;;;+++===::::iiiiiiiiiiiiiiiiii:::=======>>>nnnZZZZZZNNN***9999...      ",
"      ...1119999000***nnnNNNMMMVVVZZZTTTTTTTZZZTTTTTTTTTZZZZZZZZZZZZZZZZNNNnnn***www9991111...      ",
"      ...1119999000***nnnNNNMMMVVVZZZTTTTTTTZZZTTTTTTTTTZZZZZZZZZZZZZZZZNNNnnn***www9991111...      ",
"      ...1119999000***nnnNNNMMMVVVZZZTTTTTTTZZZTTTTTTTTTZZZZZZZZZZZZZZZZNNNnnn***www9991111...      ",
"      ...III1111111000HHHnnn********************************************nnnGGG000111111IIII...      ",
"      ...III1111111000HHHnnn********************************************nnnGGG000111111IIII...      ",
"      ...III1111111000HHHnnn********************************************nnnGGG000111111IIII...      ",
"      ...aaaIIIIIII222333000000ffffffffffEEEEEEEEE!!!!!!KKKfffffff000000000333222IIIIIIaaaa...      ",
"      ...aaaIIIIIII222333000000ffffffffffEEEEEEEEE!!!!!!KKKfffffff000000000333222IIIIIIaaaa...      ",
"      ...aaaIIIIIII222333000000ffffffffffEEEEEEEEE!!!!!!KKKfffffff000000000333222IIIIIIaaaa...      ",
"      ...XXXaaaaaaaUUUYYY333&&&&&&&&&yyyyddd&&&yyydddddd4444443333333333333YYYUUUaaaaaaaaaa...      ",
"      ...XXXaaaaaaaUUUYYY333&&&&&&&&&yyyyddd&&&yyydddddd4444443333333333333YYYUUUaaaaaaaaaa...      ",
"      ...XXXaaaaaaaUUUYYY333&&&&&&&&&yyyyddd&&&yyydddddd4444443333333333333YYYUUUaaaaaaaaaa...      ",
"      ...LLLXXXXaaa%%%&&&&&&QQQQQQQQQQQQQvvv&&&QQQ&&&&&&&&&WWWWWWWYYYYYYYYYllljjjaaaaaahhhh...      ",
"      ...LLLXXXXaaa%%%&&&&&&QQQQQQQQQQQQQvvv&&&QQQ&&&&&&&&&WWWWWWWYYYYYYYYYllljjjaaaaaahhhh...      ",
"      ...LLLXXXXaaa%%%&&&&&&QQQQQQQQQQQQQvvv&&&QQQ&&&&&&&&&WWWWWWWYYYYYYYYYllljjjaaaaaahhhh...      ",
"      ...sssPPPPhhh%%%QQQQQQ&&&QQQ&&&~~~~vvv&&&&&&^^^^^^^^^&&&&&&&lllllllllOOOttt888SSSaaaa...      ",
"      ...sssPPPPhhh%%%QQQQQQ&&&QQQ&&&~~~~vvv&&&&&&^^^^^^^^^&&&&&&&lllllllllOOOttt888SSSaaaa...      ",
"      ...sssPPPPhhh%%%QQQQQQ&&&QQQ&&&~~~~vvv&&&&&&^^^^^^^^^&&&&&&&lllllllllOOOttt888SSSaaaa...      ",
"      ...PPPLLLLaaazzzyyyyyy&&&QQQ&&&QQQQ&&&QQQ&&&QQQ&&&QQQQQQQQQQ&&&xxxuuuFFFDDD555eeehhhh...      ",
"      ...PPPLLLLaaazzzyyyyyy&&&QQQ&&&QQQQ&&&QQQ&&&QQQ&&&QQQQQQQQQQ&&&xxxuuuFFFDDD555eeehhhh...      ",
"      ...PPPLLLLaaazzzyyyyyy&&&QQQ&&&QQQQ&&&QQQ&&&QQQ&&&QQQQQQQQQQ&&&xxxuuuFFFDDD555eeehhhh...      ",
"      ...PPPLLLLaaazzzyyyyyy&&&QQQ&&&QQQQ&&&QQQ&&&QQQ&&&QQQQQQQQQQ&&&xxxuuuFFFDDD555eeehhhh...      ",
"      ...LLLPPPPhhhjjjllllll&&&QQQ&&&~~~~vvvQQQQQQQQQvvv^^^yyy&&&&QQQ&&&777rrr777SSS888aaaa...      ",
"      ...LLLPPPPhhhjjjllllll&&&QQQ&&&~~~~vvvQQQQQQQQQvvv^^^yyy&&&&QQQ&&&777rrr777SSS888aaaa...      ",
"      ...LLLPPPPhhhjjjllllll&&&QQQ&&&~~~~vvvQQQQQQQQQvvv^^^yyy&&&&QQQ&&&777rrr777SSS888aaaa...      ",
"      ...aaaLLLLaaazzzxxxxxx&&&QQQ&&&&&&&^^^~~~&&&&&&&&&QQQQQQQQQQQQQ&&&&&&qqqJJJeeeaaakkkk...      ",
"      ...aaaLLLLaaazzzxxxxxx&&&QQQ&&&&&&&^^^~~~&&&&&&&&&QQQQQQQQQQQQQ&&&&&&qqqJJJeeeaaakkkk...      ",
"      ...aaaLLLLaaazzzxxxxxx&&&QQQ&&&&&&&^^^~~~&&&&&&&&&QQQQQQQQQQQQQ&&&&&&qqqJJJeeeaaakkkk...      ",
"      ...nnnppppkkkjjjllllllxxxyyy~~~yyyy&&&&&&xxxbbbvvv^^^yyy&&&&QQQQQQ&&&llljjjkkkpppnnnn...      ",
"      ...nnnppppkkkjjjllllllxxxyyy~~~yyyy&&&&&&xxxbbbvvv^^^yyy&&&&QQQQQQ&&&llljjjkkkpppnnnn...      ",
"      ...nnnppppkkkjjjllllllxxxyyy~~~yyyy&&&&&&xxxbbbvvv^^^yyy&&&&QQQQQQ&&&llljjjkkkpppnnnn...      ",
"         ...nnnnnnnppppppaaallllll&&&&&&&lllllllllllllll&&&&&&llll&&&&&&aaappppppVVVnnn....         ",
"         ...nnnnnnnppppppaaallllll&&&&&&&lllllllllllllll&&&&&&llll&&&&&&aaappppppVVVnnn....         ",
"         ...nnnnnnnppppppaaallllll&&&&&&&lllllllllllllll&&&&&&llll&&&&&&aaappppppVVVnnn....         ",
"            ....$$$nnnVVVnnnppppppppppppppppppppppgggccccccgggppppppppppVVVVVVnnn$$$...             ",
"            ....$$$nnnVVVnnnppppppppppppppppppppppgggccccccgggppppppppppVVVVVVnnn$$$...             ",
"            ....$$$nnnVVVnnnppppppppppppppppppppppgggccccccgggppppppppppVVVVVVnnn$$$...             ",
"                   ......$$$nnnnnnVVVZZZZZZZZZZZZZVVVVVVZZZZZZVVVVnnnnnn$$$......                   ",
"                   ......$$$nnnnnnVVVZZZZZZZZZZZZZVVVVVVZZZZZZVVVVnnnnnn$$$......                   ",
"                   ......$$$nnnnnnVVVZZZZZZZZZZZZZVVVVVVZZZZZZVVVVnnnnnn$$$......                   ",
"                            ............................................                            ",
"                            ............................................                            ",
"                            ............................................                            ",
"                                                                                                    ",
"                                                                                                    ",
"                                                                                                    ",
"                                                                                                    ",
"                                                                                                    ",
"                                                                                                    ",
"                                                                                                    ",
"                                                                                                    ",
"                                                                                                    ",
"                                                                                                    ",
"                                                                                                    ",
"                                                                                                    ",
"                                                                                                    ",
"                                                                                                    ",
"                                                                                                    ",
"                                                                                                    "
};
