/* XPM */
static char *e5d88c7cd0cb49ecb9b27f95321fcb9dCqv5fTre7Q6wt2UN[] = {
/* columns rows colors chars-per-pixel */
"100 100 25 1 ",
"  c None",
". c #1E1D39",
"X c #241527",
"o c #341C27",
"O c #19332D",
"+ c #172038",
"@ c #411D31",
"# c #4D2B32",
"$ c #602C2C",
"% c #752438",
"& c #25562E",
"* c #253A5E",
"= c #402751",
"- c #7A367B",
"; c #7A4841",
": c #A53030",
"> c #884B2B",
", c #BE772B",
"< c #CF573C",
"1 c #AD7757",
"2 c #468232",
"3 c #C09473",
"4 c #3C5E8B",
"5 c #A23E8C",
"6 c #C65197",
/* pixels */
"                               ###;;;;;;;;;;;;;;;;;;;;;;;;;;;;;;;;;;;###                            ",
"                               ###;;;;;;;;;;;;;;;;;;;;;;;;;;;;;;;;;;;###                            ",
"                               ###;;;;;;;;;;;;;;;;;;;;;;;;;;;;;;;;;;;###                            ",
"                         ###;;;11111111111111111111111111111111111111111;;;###                      ",
"                         ###;;;11111111111111111111111111111111111111111;;;###                      ",
"                         ###;;;11111111111111111111111111111111111111111;;;###                      ",
"                   ###;;;111111;;;;;;;;;;;;;;;;;;;;;;;;;;;;;;;;;;;;;;;;;111111;;;###                ",
"                   ###;;;111111;;;;;;;;;;;;;;;;;;;;;;;;;;;;;;;;;;;;;;;;;111111;;;###                ",
"                   ###;;;111111;;;;;;;;;;;;;;;;;;;;;;;;;;;;;;;;;;;;;;;;;111111;;;###                ",
"                ###;;;111;;;111;;;;;;;;;;;;;;;;;;;;;;;;;;;;;;;;;;;;;;;;;111;;;111;;;###             ",
"                ###;;;111;;;111;;;;;;;;;;;;;;;;;;;;;;;;;;;;;;;;;;;;;;;;;111;;;111;;;###             ",
"                ###;;;111;;;111;;;;;;;;;;;;;;;;;;;;;;;;;;;;;;;;;;;;;;;;;111;;;111;;;###             ",
"                ;;;111;;;;;;111;;;;;;;;;;;;;;;;;;;;;;;;;;;;;;;;;;;;;;;;;111;;;;;;111;;;             ",
"                ;;;111;;;;;;111;;;;;;;;;;;;;;;;;;;;;;;;;;;;;;;;;;;;;;;;;111;;;;;;111;;;             ",
"                ;;;111;;;;;;111;;;;;;;;;;;;;;;;;;;;;;;;;;;;;;;;;;;;;;;;;111;;;;;;111;;;             ",
"                ###111;;;;;;111;;;;;;;;;;;;;;;;;;;;;;;;;;;;;;;;;;;;;;;;;111;;;;;;111###             ",
"                ###111;;;;;;111;;;;;;;;;;;;;;;;;;;;;;;;;;;;;;;;;;;;;;;;;111;;;;;;111###             ",
"                ###111;;;;;;111;;;;;;;;;;;;;;;;;;;;;;;;;;;;;;;;;;;;;;;;;111;;;;;;111###             ",
"                ###111;;;;;;11111111111111111111111111111111111111111111111;;;;;;111###             ",
"                ###111;;;;;;11111111111111111111111111111111111111111111111;;;;;;111###             ",
"                ###111;;;;;;11111111111111111111111111111111111111111111111;;;;;;111###             ",
"                ###111;;;111;;;;;;;;;;;;;;;;;;;;;;;;;;;;;;;;;;;;;;;;;;;;;;;111;;;111###             ",
"                ###111;;;111;;;;;;;;;;;;;;;;;;;;;;;;;;;;;;;;;;;;;;;;;;;;;;;111;;;111###             ",
"                ###111;;;111;;;;;;;;;;;;;;;;;;;;;;;;;;;;;;;;;;;;;;;;;;;;;;;111;;;111###             ",
"                ;;;111111;;;;;;;;;;;;;;;;;;;;;;;;;;;;;;;;;;;;;;;;;;;;;;;;;;;;;111111;;;             ",
"                ;;;111111;;;;;;;;;;;;;;;;;;;;;;;;;;;;;;;;;;;;;;;;;;;;;;;;;;;;;111111;;;             ",
"                ;;;111111;;;;;;;;;;;;;;;;;;;;;;;;;;;;;;;;;;;;;;;;;;;;;;;;;;;;;111111;;;             ",
"                ;;;###;;;;;;11111111111111111111111111111111111111111111111;;;;;;###;;;             ",
"                ;;;###;;;;;;11111111111111111111111111111111111111111111111;;;;;;###;;;             ",
"                ;;;###;;;;;;11111111111111111111111111111111111111111111111;;;;;;###;;;             ",
"                ###;;;;;;111;;;#########################################;;;111;;;;;;###             ",
"                ###;;;;;;111;;;#########################################;;;111;;;;;;###             ",
"                ###;;;;;;111;;;#########################################;;;111;;;;;;###             ",
"                ###;;;111;;;###XXXXXXXXXXXXXXXXXXXXXXXXXXXXXXXXXXXXXXXXX###;;;111;;;###             ",
"                ###;;;111;;;###XXXXXXXXXXXXXXXXXXXXXXXXXXXXXXXXXXXXXXXXX###;;;111;;;###             ",
"                ###;;;111;;;###XXXXXXXXXXXXXXXXXXXXXXXXXXXXXXXXXXXXXXXXX###;;;111;;;###             ",
"                ###;;;111###XXXOOOOOOXXXXXXX@@@@@@$$$>>>XXXXXXXXXXXXXXXXXXX###111;;;###             ",
"                ###;;;111###XXXOOOOOOXXXXXXX@@@@@@$$$>>>XXXXXXXXXXXXXXXXXXX###111;;;###             ",
"                ###;;;111###XXXOOOOOOXXXXXXX@@@@@@$$$>>>XXXXXXXXXXXXXXXXXXX###111;;;###             ",
"                ###;;;111ooooooOOO&&&+++++++@@@%%%>>>,,,ooooooooooooooooXXXooo111;;;###             ",
"                ###;;;111ooooooOOO&&&+++++++@@@%%%>>>,,,ooooooooooooooooXXXooo111;;;###             ",
"                ###;;;111ooooooOOO&&&+++++++@@@%%%>>>,,,ooooooooooooooooXXXooo111;;;###             ",
"                ###;;;111###ooo&&&222++++***%%%:::>>>,,,ooo333oooo111oooooo###111;;;###             ",
"                ###;;;111###ooo&&&222++++***%%%:::>>>,,,ooo333oooo111oooooo###111;;;###             ",
"                ###;;;111###ooo&&&222++++***%%%:::>>>,,,ooo333oooo111oooooo###111;;;###             ",
"                ###;;;111###ooo&&&222****444%%%:::>>>,,,ooo3333333;;;oooooo###111;;;###             ",
"                ###;;;111###ooo&&&222****444%%%:::>>>,,,ooo3333333;;;oooooo###111;;;###             ",
"                ###;;;111###ooo&&&222****444%%%:::>>>,,,ooo3333333;;;oooooo###111;;;###             ",
"                ###;;;111###ooo&&&222****444%%%:::>>>,,,ooo3331111111111ooo###111;;;###             ",
"                ###;;;111###ooo&&&222****444%%%:::>>>,,,ooo3331111111111ooo###111;;;###             ",
"                ###;;;111###ooo&&&222****444%%%:::>>>,,,ooo3331111111111ooo###111;;;###             ",
"                ###;;;111###ooo&&&222****444%%%:::>>>,,,ooo3331111111111ooo###111;;;###             ",
"                ###;;;111###ooo&&&222****444%%%:::>>>,,,ooo3331111;;;111ooo###111;;;###             ",
"                ###;;;111###ooo&&&222****444%%%:::>>>,,,ooo3331111;;;111ooo###111;;;###             ",
"                ###;;;111###ooo&&&222****444%%%:::>>>,,,ooo3331111;;;111ooo###111;;;###             ",
"                ###;;;111###ooo&&&222****444%%%:::>>>,,,ooo;;;1111;;;;;;ooo###111;;;###             ",
"                ###;;;111###ooo&&&222****444%%%:::>>>,,,ooo;;;1111;;;;;;ooo###111;;;###             ",
"                ###;;;111###ooo&&&222****444%%%:::>>>,,,ooo;;;1111;;;;;;ooo###111;;;###             ",
"                ###;;;111###oooOOOOOO++++***@@@@@@$$$$$$oooooo#######oooooo###111;;;###             ",
"                ###;;;111###oooOOOOOO++++***@@@@@@$$$$$$oooooo#######oooooo###111;;;###             ",
"                ###;;;111###oooOOOOOO++++***@@@@@@$$$$$$oooooo#######oooooo###111;;;###             ",
"                ###;;;111ooo###;;;;;;11111111111111111111111111111;;;;;;###ooo111;;;###             ",
"                ###;;;111ooo###;;;;;;11111111111111111111111111111;;;;;;###ooo111;;;###             ",
"                ###;;;111ooo###;;;;;;11111111111111111111111111111;;;;;;###ooo111;;;###             ",
"                ###;;;111###XXXXXXXXXXXXXXXXXXXXXXXXXXXXXXXXXXXXXXXXXXXXXXX###111;;;###             ",
"                ###;;;111###XXXXXXXXXXXXXXXXXXXXXXXXXXXXXXXXXXXXXXXXXXXXXXX###111;;;###             ",
"                ###;;;111###XXXXXXXXXXXXXXXXXXXXXXXXXXXXXXXXXXXXXXXXXXXXXXX###111;;;###             ",
"                ###;;;111###XXXooo@@@@@@@@@@ooo......======...ooooooooooXXX###111;;;###             ",
"                ###;;;111###XXXooo@@@@@@@@@@ooo......======...ooooooooooXXX###111;;;###             ",
"                ###;;;111###XXXooo@@@@@@@@@@ooo......======...ooooooooooXXX###111;;;###             ",
"                ###;;;111###ooo@@@%%%%%%%%%%@@@======------===ooooooooooooo###111;;;###             ",
"                ###;;;111###ooo@@@%%%%%%%%%%@@@======------===ooooooooooooo###111;;;###             ",
"                ###;;;111###ooo@@@%%%%%%%%%%@@@======------===ooooooooooooo###111;;;###             ",
"                ###;;;111###ooo%%%::::::::::%%%---555555666---ooooooooooooo###111;;;###             ",
"                ###;;;111###ooo%%%::::::::::%%%---555555666---ooooooooooooo###111;;;###             ",
"                ###;;;111###ooo%%%::::::::::%%%---555555666---ooooooooooooo###111;;;###             ",
"                ###;;;111###ooo:::<<<<<<<<<<%%%---666666555---ooooooooooooo###111;;;###             ",
"                ###;;;111###ooo:::<<<<<<<<<<%%%---666666555---ooooooooooooo###111;;;###             ",
"                ###;;;111###ooo:::<<<<<<<<<<%%%---666666555---ooooooooooooo###111;;;###             ",
"                ###;;;111###ooo:::<<<<<<<<<<%%%------555555---ooooooooooooo###111;;;###             ",
"                ###;;;111###ooo:::<<<<<<<<<<%%%------555555---ooooooooooooo###111;;;###             ",
"                ###;;;111###ooo:::<<<<<<<<<<%%%------555555---ooooooooooooo###111;;;###             ",
"                ###;;;111###ooo@@@%%%%%%%%%%@@@===---------===ooooooooooooo###111;;;###             ",
"                ###;;;111###ooo@@@%%%%%%%%%%@@@===---------===ooooooooooooo###111;;;###             ",
"                ###;;;111###ooo@@@%%%%%%%%%%@@@===---------===ooooooooooooo###111;;;###             ",
"                ###;;;111ooo###;;;;;;11111111111111111111111111111;;;;;;###ooo111;;;###             ",
"                ###;;;111ooo###;;;;;;11111111111111111111111111111;;;;;;###ooo111;;;###             ",
"                ###;;;111ooo###;;;;;;11111111111111111111111111111;;;;;;###ooo111;;;###             ",
"                ###;;;;;;111ooooooooooooooooooooooooooooooooooooooooooooooo111;;;;;;###             ",
"                ###;;;;;;111ooooooooooooooooooooooooooooooooooooooooooooooo111;;;;;;###             ",
"                ###;;;;;;111ooooooooooooooooooooooooooooooooooooooooooooooo111;;;;;;###             ",
"                ###;;;;;;###;;;;;;;;;;;;;;;;;;;;;;;;;;;;;;;;;;;;;;;;;;;;;;;###;;;;;;###             ",
"                ###;;;;;;###;;;;;;;;;;;;;;;;;;;;;;;;;;;;;;;;;;;;;;;;;;;;;;;###;;;;;;###             ",
"                ###;;;;;;###;;;;;;;;;;;;;;;;;;;;;;;;;;;;;;;;;;;;;;;;;;;;;;;###;;;;;;###             ",
"                   ######11111111111111111111111111111111111111111111111111111######                ",
"                   ######11111111111111111111111111111111111111111111111111111######                ",
"                   ######11111111111111111111111111111111111111111111111111111######                ",
"                               oooooo;;;;;;;;;;;;;;;;;;;;;;;;;;;;;;;;###                            ",
"                               oooooo;;;;;;;;;;;;;;;;;;;;;;;;;;;;;;;;###                            ",
"                               oooooo;;;;;;;;;;;;;;;;;;;;;;;;;;;;;;;;###                            "
};
